<mxfile host="app.diagrams.net" modified="2023-06-22T19:21:42.925Z" agent="Mozilla/5.0 (X11; Ubuntu; Linux x86_64; rv:109.0) Gecko/20100101 Firefox/113.0" etag="RB835dvY5w3kuCS8D-qY" version="21.5.0" type="device">
  <diagram name="Page-1" id="4Nf3ZUlt8OKHrK_1EC79">
    <mxGraphModel dx="880" dy="421" grid="1" gridSize="10" guides="1" tooltips="1" connect="1" arrows="1" fold="1" page="1" pageScale="1" pageWidth="850" pageHeight="1100" math="0" shadow="0">
      <root>
        <mxCell id="0" />
        <mxCell id="1" parent="0" />
        <mxCell id="V3cSGEao5tV2CKHK05Uz-1" value="" style="ellipse;shape=cloud;whiteSpace=wrap;html=1;fillStyle=dashed;fillColor=#999999;" vertex="1" parent="1">
          <mxGeometry x="289" y="16" width="510" height="200" as="geometry" />
        </mxCell>
        <mxCell id="V3cSGEao5tV2CKHK05Uz-2" value="" style="rounded=0;whiteSpace=wrap;html=1;" vertex="1" parent="1">
          <mxGeometry x="381" y="102" width="50" height="50" as="geometry" />
        </mxCell>
        <mxCell id="V3cSGEao5tV2CKHK05Uz-3" value="&lt;div&gt;Peer&lt;/div&gt;&lt;div&gt;Nodes&lt;br&gt;&lt;/div&gt;" style="rounded=0;whiteSpace=wrap;html=1;" vertex="1" parent="1">
          <mxGeometry x="391" y="112" width="50" height="50" as="geometry" />
        </mxCell>
        <mxCell id="V3cSGEao5tV2CKHK05Uz-5" value="" style="rounded=0;whiteSpace=wrap;html=1;" vertex="1" parent="1">
          <mxGeometry x="489" y="76" width="50" height="50" as="geometry" />
        </mxCell>
        <mxCell id="V3cSGEao5tV2CKHK05Uz-6" value="&lt;div&gt;Peer&lt;/div&gt;&lt;div&gt;Nodes&lt;/div&gt;" style="rounded=0;whiteSpace=wrap;html=1;" vertex="1" parent="1">
          <mxGeometry x="499" y="86" width="50" height="50" as="geometry" />
        </mxCell>
        <mxCell id="V3cSGEao5tV2CKHK05Uz-12" style="edgeStyle=orthogonalEdgeStyle;curved=1;rounded=0;orthogonalLoop=1;jettySize=auto;html=1;entryX=0.5;entryY=1;entryDx=0;entryDy=0;" edge="1" parent="1" source="V3cSGEao5tV2CKHK05Uz-26" target="V3cSGEao5tV2CKHK05Uz-9">
          <mxGeometry relative="1" as="geometry" />
        </mxCell>
        <mxCell id="V3cSGEao5tV2CKHK05Uz-13" style="edgeStyle=orthogonalEdgeStyle;curved=1;rounded=0;orthogonalLoop=1;jettySize=auto;html=1;entryX=0.5;entryY=1;entryDx=0;entryDy=0;" edge="1" parent="1" source="V3cSGEao5tV2CKHK05Uz-26" target="V3cSGEao5tV2CKHK05Uz-8">
          <mxGeometry relative="1" as="geometry" />
        </mxCell>
        <mxCell id="V3cSGEao5tV2CKHK05Uz-35" style="edgeStyle=orthogonalEdgeStyle;curved=1;rounded=0;orthogonalLoop=1;jettySize=auto;html=1;exitX=1;exitY=0;exitDx=0;exitDy=0;" edge="1" parent="1" source="V3cSGEao5tV2CKHK05Uz-7" target="V3cSGEao5tV2CKHK05Uz-18">
          <mxGeometry relative="1" as="geometry">
            <Array as="points">
              <mxPoint x="629" y="216" />
              <mxPoint x="669" y="216" />
            </Array>
          </mxGeometry>
        </mxCell>
        <mxCell id="V3cSGEao5tV2CKHK05Uz-7" value="&lt;div&gt;Nodeyez Panels&lt;br&gt;&lt;/div&gt;&lt;div&gt;&lt;br&gt;&lt;/div&gt;&lt;div&gt;&lt;br&gt;&lt;/div&gt;&lt;div&gt;&lt;br&gt;&lt;/div&gt;&lt;div&gt;&lt;br&gt;&lt;/div&gt;&lt;div&gt;&lt;br&gt;&lt;/div&gt;&lt;div&gt;&lt;br&gt;&lt;/div&gt;&lt;div&gt;&lt;br&gt;&lt;/div&gt;" style="rounded=0;whiteSpace=wrap;html=1;" vertex="1" parent="1">
          <mxGeometry x="418" y="246" width="211" height="150" as="geometry" />
        </mxCell>
        <mxCell id="V3cSGEao5tV2CKHK05Uz-11" style="edgeStyle=orthogonalEdgeStyle;curved=1;rounded=0;orthogonalLoop=1;jettySize=auto;html=1;" edge="1" parent="1" source="V3cSGEao5tV2CKHK05Uz-9" target="V3cSGEao5tV2CKHK05Uz-6">
          <mxGeometry relative="1" as="geometry" />
        </mxCell>
        <mxCell id="V3cSGEao5tV2CKHK05Uz-10" style="edgeStyle=orthogonalEdgeStyle;rounded=0;orthogonalLoop=1;jettySize=auto;html=1;exitX=0.75;exitY=0;exitDx=0;exitDy=0;entryX=1;entryY=0.5;entryDx=0;entryDy=0;curved=1;" edge="1" parent="1" source="V3cSGEao5tV2CKHK05Uz-8" target="V3cSGEao5tV2CKHK05Uz-3">
          <mxGeometry relative="1" as="geometry" />
        </mxCell>
        <mxCell id="V3cSGEao5tV2CKHK05Uz-9" value="&lt;div&gt;Your LND&lt;/div&gt;&lt;div&gt;Lightning Node&lt;br&gt;&lt;/div&gt;" style="rounded=0;whiteSpace=wrap;html=1;rotation=0;" vertex="1" parent="1">
          <mxGeometry x="514" y="176" width="90" height="49" as="geometry" />
        </mxCell>
        <mxCell id="V3cSGEao5tV2CKHK05Uz-18" value="Other Internet APIs" style="rounded=0;whiteSpace=wrap;html=1;" vertex="1" parent="1">
          <mxGeometry x="604" y="106" width="120" height="30" as="geometry" />
        </mxCell>
        <mxCell id="V3cSGEao5tV2CKHK05Uz-20" style="edgeStyle=orthogonalEdgeStyle;curved=1;rounded=0;orthogonalLoop=1;jettySize=auto;html=1;exitX=0.5;exitY=0;exitDx=0;exitDy=0;entryX=0.211;entryY=0.939;entryDx=0;entryDy=0;entryPerimeter=0;" edge="1" parent="1" source="V3cSGEao5tV2CKHK05Uz-19" target="V3cSGEao5tV2CKHK05Uz-26">
          <mxGeometry relative="1" as="geometry" />
        </mxCell>
        <mxCell id="V3cSGEao5tV2CKHK05Uz-19" value="&lt;div&gt;Config&lt;/div&gt;&lt;div&gt;files&lt;/div&gt;" style="shape=document;whiteSpace=wrap;html=1;boundedLbl=1;" vertex="1" parent="1">
          <mxGeometry x="401" y="446" width="49" height="60" as="geometry" />
        </mxCell>
        <mxCell id="V3cSGEao5tV2CKHK05Uz-30" style="edgeStyle=orthogonalEdgeStyle;curved=1;rounded=0;orthogonalLoop=1;jettySize=auto;html=1;" edge="1" parent="1" source="V3cSGEao5tV2CKHK05Uz-23" target="V3cSGEao5tV2CKHK05Uz-29">
          <mxGeometry relative="1" as="geometry" />
        </mxCell>
        <mxCell id="V3cSGEao5tV2CKHK05Uz-32" style="edgeStyle=orthogonalEdgeStyle;curved=1;rounded=0;orthogonalLoop=1;jettySize=auto;html=1;exitX=0.5;exitY=1;exitDx=0;exitDy=0;exitPerimeter=0;entryX=0.5;entryY=0;entryDx=0;entryDy=0;" edge="1" parent="1" source="V3cSGEao5tV2CKHK05Uz-23" target="V3cSGEao5tV2CKHK05Uz-31">
          <mxGeometry relative="1" as="geometry" />
        </mxCell>
        <mxCell id="V3cSGEao5tV2CKHK05Uz-23" value="&lt;div&gt;Generated Images&lt;br&gt;&lt;/div&gt;&lt;div&gt;~/nodeyez/imageoutput&lt;br&gt;&lt;/div&gt;" style="shape=cylinder3;whiteSpace=wrap;html=1;boundedLbl=1;backgroundOutline=1;size=15;" vertex="1" parent="1">
          <mxGeometry x="629" y="436" width="140" height="80" as="geometry" />
        </mxCell>
        <mxCell id="V3cSGEao5tV2CKHK05Uz-24" value="&lt;div&gt;Local data file cache&lt;br&gt;&lt;/div&gt;&lt;div&gt;~/nodeyez/data&lt;br&gt;&lt;/div&gt;" style="shape=cylinder3;whiteSpace=wrap;html=1;boundedLbl=1;backgroundOutline=1;size=15;" vertex="1" parent="1">
          <mxGeometry x="469" y="436" width="120" height="80" as="geometry" />
        </mxCell>
        <mxCell id="V3cSGEao5tV2CKHK05Uz-25" value="systemd service config" style="rounded=0;whiteSpace=wrap;html=1;" vertex="1" parent="1">
          <mxGeometry x="450" y="290" width="140" height="30" as="geometry" />
        </mxCell>
        <mxCell id="V3cSGEao5tV2CKHK05Uz-27" style="edgeStyle=orthogonalEdgeStyle;curved=1;rounded=0;orthogonalLoop=1;jettySize=auto;html=1;exitX=0.5;exitY=1;exitDx=0;exitDy=0;" edge="1" parent="1" source="V3cSGEao5tV2CKHK05Uz-26" target="V3cSGEao5tV2CKHK05Uz-24">
          <mxGeometry relative="1" as="geometry" />
        </mxCell>
        <mxCell id="V3cSGEao5tV2CKHK05Uz-28" style="edgeStyle=orthogonalEdgeStyle;curved=1;rounded=0;orthogonalLoop=1;jettySize=auto;html=1;exitX=0.75;exitY=1;exitDx=0;exitDy=0;entryX=0.145;entryY=0;entryDx=0;entryDy=4.35;entryPerimeter=0;" edge="1" parent="1" source="V3cSGEao5tV2CKHK05Uz-26" target="V3cSGEao5tV2CKHK05Uz-23">
          <mxGeometry relative="1" as="geometry" />
        </mxCell>
        <mxCell id="V3cSGEao5tV2CKHK05Uz-26" value="Nodeyez Panel script" style="rounded=0;whiteSpace=wrap;html=1;" vertex="1" parent="1">
          <mxGeometry x="449" y="346" width="140" height="30" as="geometry" />
        </mxCell>
        <mxCell id="V3cSGEao5tV2CKHK05Uz-29" value="&lt;div&gt;Nodeyez&lt;/div&gt;&lt;div&gt;Website&lt;/div&gt;&lt;div&gt;Dashboard&lt;br&gt;&lt;/div&gt;&lt;div&gt;&lt;br&gt;&lt;/div&gt;&lt;div&gt;port 907&lt;br&gt;&lt;/div&gt;" style="rounded=0;whiteSpace=wrap;html=1;" vertex="1" parent="1">
          <mxGeometry x="659" y="246" width="110" height="150" as="geometry" />
        </mxCell>
        <mxCell id="V3cSGEao5tV2CKHK05Uz-31" value="&lt;div&gt;Nodeyez Slideshow&lt;/div&gt;&lt;div&gt;&lt;br&gt;&lt;/div&gt;&lt;div&gt;Renders to attached display&lt;br&gt;&lt;/div&gt;" style="rounded=0;whiteSpace=wrap;html=1;" vertex="1" parent="1">
          <mxGeometry x="654" y="546" width="120" height="60" as="geometry" />
        </mxCell>
        <mxCell id="V3cSGEao5tV2CKHK05Uz-33" value="" style="rounded=0;orthogonalLoop=1;jettySize=auto;html=1;exitX=0;exitY=0.5;exitDx=0;exitDy=0;" edge="1" parent="1" source="V3cSGEao5tV2CKHK05Uz-9" target="V3cSGEao5tV2CKHK05Uz-8">
          <mxGeometry relative="1" as="geometry">
            <mxPoint x="519" y="181" as="sourcePoint" />
            <mxPoint x="229" y="301" as="targetPoint" />
          </mxGeometry>
        </mxCell>
        <mxCell id="V3cSGEao5tV2CKHK05Uz-8" value="&lt;div&gt;Your&lt;/div&gt;&lt;div&gt;Bitcoin Node&lt;/div&gt;" style="rounded=0;whiteSpace=wrap;html=1;rotation=0;" vertex="1" parent="1">
          <mxGeometry x="389" y="176" width="90" height="40" as="geometry" />
        </mxCell>
        <mxCell id="V3cSGEao5tV2CKHK05Uz-37" style="edgeStyle=orthogonalEdgeStyle;curved=1;rounded=0;orthogonalLoop=1;jettySize=auto;html=1;exitX=0.5;exitY=1;exitDx=0;exitDy=0;entryX=0;entryY=0.5;entryDx=0;entryDy=0;" edge="1" parent="1" source="V3cSGEao5tV2CKHK05Uz-36" target="V3cSGEao5tV2CKHK05Uz-19">
          <mxGeometry relative="1" as="geometry" />
        </mxCell>
        <mxCell id="V3cSGEao5tV2CKHK05Uz-36" value="&lt;div&gt;Configuration Tool&lt;/div&gt;&lt;div&gt;&lt;br&gt;&lt;/div&gt;&lt;div&gt;nodeyez-config&lt;br&gt;&lt;/div&gt;" style="rounded=0;whiteSpace=wrap;html=1;" vertex="1" parent="1">
          <mxGeometry x="271" y="336" width="120" height="60" as="geometry" />
        </mxCell>
      </root>
    </mxGraphModel>
  </diagram>
</mxfile>
